<svg id="journal" xmlns="http://www.w3.org/2000/svg" width="19.533" height="20.835" viewBox="0 0 19.533 20.835">
  <path id="Path_4" data-name="Path 4" d="M3.6,0H16.626a2.6,2.6,0,0,1,2.6,2.6V18.23a2.6,2.6,0,0,1-2.6,2.6H3.6A2.6,2.6,0,0,1,1,18.23v-1.3H2.3v1.3a1.3,1.3,0,0,0,1.3,1.3H16.626a1.3,1.3,0,0,0,1.3-1.3V2.6a1.3,1.3,0,0,0-1.3-1.3H3.6A1.3,1.3,0,0,0,2.3,2.6v1.3H1V2.6A2.6,2.6,0,0,1,3.6,0" transform="translate(0.302)" fill="#f2a700"/>
  <path id="Path_5" data-name="Path 5" d="M1.3,5.3V4.651a.651.651,0,0,1,1.3,0V5.3h.651a.651.651,0,0,1,0,1.3H.651a.651.651,0,0,1,0-1.3Zm0,3.907V8.558a.651.651,0,0,1,1.3,0v.651h.651a.651.651,0,0,1,0,1.3H.651a.651.651,0,1,1,0-1.3Zm0,3.907v-.651a.651.651,0,0,1,1.3,0v.651h.651a.651.651,0,0,1,0,1.3H.651a.651.651,0,0,1,0-1.3Z" transform="translate(0 1.209)" fill="#f2a700"/>
</svg>
