<svg xmlns="http://www.w3.org/2000/svg" width="16" height="16" viewBox="0 0 16 16">
  <path id="facebook" d="M1.6,0A1.6,1.6,0,0,0,0,1.6V14.4A1.6,1.6,0,0,0,1.6,16H14.4A1.6,1.6,0,0,0,16,14.4V1.6A1.6,1.6,0,0,0,14.4,0Zm8.557,8.405L10.3,7.139a.237.237,0,0,0-.233-.268H8.594V5.808c0-.481.131-.808.8-.808h.622a.238.238,0,0,0,.235-.237V3.7a.239.239,0,0,0-.235-.242H9A1.975,1.975,0,0,0,6.923,5.647V6.871h-1a.237.237,0,0,0-.235.241L5.7,8.378a.237.237,0,0,0,.235.24h1l-.006,3.755a.17.17,0,0,0,.167.172H8.426a.17.17,0,0,0,.168-.171L8.6,8.618H9.925a.236.236,0,0,0,.233-.213Z" fill="#334c8c" fill-rule="evenodd"/>
</svg>
