<svg xmlns="http://www.w3.org/2000/svg" width="101.629" height="129.347" viewBox="0 0 101.629 129.347">
  <g id="Group_42" data-name="Group 42" transform="translate(1.741 1.5)">
    <path id="Path_80" data-name="Path 80" d="M407.921,330.842l-5.393-10.326h-2.443a29.308,29.308,0,0,1-18.379-6.4,31.91,31.91,0,0,0-39.965,0,29.308,29.308,0,0,1-18.379,6.4h-2.443l-5.393,10.326c4.486,6.715,8.711,16.221,7.274,27.061-2.817,21.254-16.133,33.034,9.731,47.63s29.192,19.205,29.192,19.205,3.329-4.609,29.192-19.205,12.548-26.375,9.731-47.63C399.21,347.062,403.436,337.556,407.921,330.842Z" transform="translate(-312.651 -304.609)" fill="#fff"/>
    <g id="Group_41" data-name="Group 41">
      <path id="Path_81" data-name="Path 81" d="M359.422,427.633l-1.9-3.327c-.465-.529-5.047-5.334-28.415-18.522-21.142-11.931-17.914-23.176-14.176-36.2a93.7,93.7,0,0,0,3.207-13.917c1.377-10.388-2.98-19.524-6.878-25.359l-.816-1.221,6.768-12.958h3.944a26.91,26.91,0,0,0,16.827-5.85,34.386,34.386,0,0,1,43.069,0,26.91,26.91,0,0,0,16.827,5.85h3.944l6.768,12.958-.816,1.221c-3.9,5.835-8.255,14.97-6.879,25.359a93.822,93.822,0,0,0,3.207,13.917c3.738,13.02,6.966,24.265-14.176,36.2-23.447,13.233-27.981,18.026-28.42,18.528Z" transform="translate(-310.44 -302.703)" fill="none" stroke="#fff" stroke-width="3"/>
    </g>
  </g>
</svg>
