<svg xmlns="http://www.w3.org/2000/svg" xmlns:xlink="http://www.w3.org/1999/xlink" width="16" height="15.304" viewBox="0 0 16 15.304">
  <defs>
    <clipPath id="clip-path">
      <rect id="Rectangle_25" data-name="Rectangle 25" width="16" height="15.304" transform="translate(0.076 0.063)" fill="#fff"/>
    </clipPath>
  </defs>
  <g id="instagram" transform="translate(-0.076 -0.063)" clip-path="url(#clip-path)">
    <path id="Path_7" data-name="Path 7" d="M11,0H4.669A4.675,4.675,0,0,0,0,4.669V11a4.675,4.675,0,0,0,4.669,4.669H11A4.675,4.675,0,0,0,15.674,11V4.669A4.675,4.675,0,0,0,11,0ZM14.1,11A3.093,3.093,0,0,1,11,14.1H4.669A3.093,3.093,0,0,1,1.577,11V4.669A3.093,3.093,0,0,1,4.669,1.577H11A3.093,3.093,0,0,1,14.1,4.669Z" transform="translate(0.212 -0.206)" fill="#fff"/>
    <path id="Path_8" data-name="Path 8" d="M16.122,12.068a4.054,4.054,0,1,0,4.054,4.054A4.058,4.058,0,0,0,16.122,12.068Zm0,6.531A2.477,2.477,0,1,1,18.6,16.122,2.477,2.477,0,0,1,16.122,18.6Z" transform="translate(-8.073 -8.491)" fill="#fff"/>
    <path id="Path_9" data-name="Path 9" d="M35.829,11.009a.971.971,0,1,0-.971-.971A.971.971,0,0,0,35.829,11.009Z" transform="translate(-23.719 -6.43)" fill="#fff"/>
  </g>
</svg>
