<svg xmlns="http://www.w3.org/2000/svg" width="16" height="16" viewBox="0 0 16 16">
  <path id="linkedin" d="M1.6,0A1.6,1.6,0,0,0,0,1.6V14.4A1.6,1.6,0,0,0,1.6,16H14.4A1.6,1.6,0,0,0,16,14.4V1.6A1.6,1.6,0,0,0,14.4,0ZM5.967,4.7A1.242,1.242,0,1,1,5.6,3.819,1.242,1.242,0,0,1,5.967,4.7ZM5.686,6.761v5.477a.307.307,0,0,1-.307.307H4.073a.307.307,0,0,1-.307-.307V6.761a.307.307,0,0,1,.307-.306H5.379a.307.307,0,0,1,.307.306Zm6.829,5.5V9.592c0-1.157,0-3.229-2.233-3.229a1.927,1.927,0,0,0-1.81.85V6.736a.283.283,0,0,0-.283-.282H6.834a.283.283,0,0,0-.283.282v5.526a.282.282,0,0,0,.283.283H8.19a.283.283,0,0,0,.285-.283V9.3c.035-.4.21-1.285,1.074-1.285,1.03,0,1.01,1.113,1,1.582,0,.037,0,.07,0,.1v2.569a.282.282,0,0,0,.282.283h1.4a.282.282,0,0,0,.282-.283Z" fill="#0b69c7" fill-rule="evenodd"/>
</svg>
