<svg xmlns="http://www.w3.org/2000/svg" xmlns:xlink="http://www.w3.org/1999/xlink" width="20.26" height="19.379" viewBox="0 0 20.26 19.379">
  <defs>
    <clipPath id="clip-path">
      <rect id="Rectangle_26" data-name="Rectangle 26" width="20.26" height="19.379" transform="translate(-0.413 0.063)" fill="#fff"/>
    </clipPath>
  </defs>
  <g id="Colored_Social_line_youtube" data-name="Colored/Social/line/youtube" transform="translate(0.412 -0.063)" clip-path="url(#clip-path)">
    <path id="Vector" d="M19.438,9.694a2.486,2.486,0,0,0-1.749-1.749C16.135,7.52,9.923,7.52,9.923,7.52s-6.212,0-7.765.409A2.537,2.537,0,0,0,.409,9.694,26.2,26.2,0,0,0,0,14.467a26.1,26.1,0,0,0,.409,4.774A2.487,2.487,0,0,0,2.158,20.99c1.569.425,7.765.425,7.765.425s6.212,0,7.765-.409a2.486,2.486,0,0,0,1.749-1.749,26.2,26.2,0,0,0,.409-4.774A24.869,24.869,0,0,0,19.438,9.694Z" transform="translate(-0.089 -4.812)" fill="red"/>
    <path id="Vector_2" d="M20.016,23.479,25.182,20.5l-5.166-2.975Z" transform="translate(-12.16 -10.848)" fill="#fff"/>
  </g>
</svg>
